<svg width="22" height="21" viewBox="0 0 22 21" fill="none" xmlns="http://www.w3.org/2000/svg">
<path fill-rule="evenodd" clip-rule="evenodd" d="M9.57283 1.07795C10.1706 -0.359318 12.2067 -0.359313 12.8045 1.07795L14.8206 5.92537C14.8566 6.01193 14.938 6.07107 15.0315 6.07856L20.2647 6.4981C21.8163 6.6225 22.4455 8.55889 21.2633 9.57156L17.2761 12.987C17.2049 13.048 17.1738 13.1437 17.1956 13.2348L18.4137 18.3416C18.7749 19.8557 17.1277 21.0524 15.7993 20.2411L11.319 17.5045C11.239 17.4556 11.1383 17.4556 11.0583 17.5045L6.57798 20.2411C5.24956 21.0525 3.60237 19.8557 3.96355 18.3416L5.18169 13.2348C5.20344 13.1437 5.17234 13.048 5.10115 12.987L1.114 9.57155C-0.068189 8.55888 0.560988 6.6225 2.11263 6.4981L7.34583 6.07856C7.43927 6.07107 7.52068 6.01193 7.55668 5.92537L9.57283 1.07795ZM11.4195 1.65399C11.3341 1.44867 11.0432 1.44867 10.9578 1.65399L8.94166 6.50141C8.68965 7.10732 8.11983 7.52132 7.4657 7.57376L2.2325 7.9933C2.01083 8.01108 1.92096 8.2877 2.08984 8.43237L6.07698 11.8478C6.57536 12.2747 6.79301 12.9446 6.64075 13.5829L5.42261 18.6896C5.37101 18.9059 5.60633 19.0769 5.7961 18.961L10.2764 16.2244C10.8365 15.8823 11.5408 15.8823 12.1008 16.2244L16.5812 18.9609C16.771 19.0769 17.0063 18.9059 16.9547 18.6896L15.7365 13.5829C15.5843 12.9446 15.8019 12.2747 16.3003 11.8478L20.2874 8.43237C20.4563 8.2877 20.3665 8.01107 20.1448 7.9933L14.9116 7.57376C14.2575 7.52132 13.6876 7.10732 13.4356 6.50141L11.4195 1.65399Z" fill="#7F56D9"/>
</svg>